<?xml version="1.0" standalone="no"?>
<!DOCTYPE svg PUBLIC "-//W3C//DTD SVG 20010904//EN"
 "http://www.w3.org/TR/2001/REC-SVG-20010904/DTD/svg10.dtd">
<svg version="1.0" xmlns="http://www.w3.org/2000/svg"
 width="1440.000000pt" height="1440.000000pt" viewBox="0 0 1440.000000 1440.000000"
 preserveAspectRatio="xMidYMid meet">

<g transform="translate(0.000000,1440.000000) scale(0.100000,-0.100000)"
fill="#000000" stroke="none">
<path d="M0 7200 l0 -7200 7200 0 7200 0 0 7200 0 7200 -7200 0 -7200 0 0
-7200z m7945 3510 c115 -172 183 -331 227 -530 28 -126 31 -403 5 -525 -41
-188 -133 -412 -229 -555 -25 -36 -92 -135 -150 -220 -123 -182 -130 -193
-122 -215 4 -9 52 -51 108 -92 509 -384 820 -769 1004 -1243 38 -98 80 -239
105 -355 43 -195 52 -278 51 -500 0 -183 -4 -238 -22 -330 -53 -271 -128 -462
-331 -844 -213 -402 -215 -406 -186 -417 8 -4 72 10 143 30 313 89 551 139
769 161 187 19 275 19 443 -1 314 -36 562 -125 886 -317 267 -159 464 -334
612 -545 l23 -33 -29 -27 c-31 -28 -359 -200 -591 -310 -389 -183 -719 -292
-1031 -338 -160 -24 -465 -24 -625 0 -311 46 -635 160 -970 340 -136 72 -308
180 -313 195 -9 28 131 -4 373 -84 39 -13 104 -33 145 -45 41 -12 86 -26 100
-31 14 -4 43 -13 65 -18 22 -5 76 -18 120 -29 294 -73 642 -86 985 -37 351 51
723 156 955 272 166 83 285 168 285 203 0 61 -354 279 -598 369 -310 114 -597
164 -952 163 -304 0 -569 -42 -811 -127 -105 -38 -320 -145 -410 -204 -90 -60
-229 -189 -316 -292 -56 -67 -68 -76 -128 -97 -37 -13 -137 -53 -224 -89 -483
-202 -656 -264 -931 -333 -281 -70 -514 -100 -785 -100 -534 0 -1004 146
-1470 456 -184 122 -309 223 -313 252 -5 30 74 126 210 258 192 186 390 325
633 444 416 205 810 288 1185 251 104 -10 334 -53 510 -96 74 -18 287 -61 343
-69 46 -6 57 12 32 50 -9 14 -71 89 -137 167 -221 259 -393 503 -475 671 -19
39 -38 79 -44 89 -47 86 -126 359 -144 501 -10 73 -7 340 4 426 57 447 324
935 716 1309 116 111 275 231 386 292 60 33 79 49 79 65 0 11 -34 72 -74 135
-148 227 -226 356 -290 486 -36 73 -66 136 -66 139 0 4 -12 37 -26 72 -29 73
-44 124 -76 262 -28 124 -30 352 -4 480 48 232 158 446 329 638 148 166 158
155 67 -78 -87 -225 -163 -489 -185 -645 -54 -383 41 -670 341 -1030 157 -188
192 -213 275 -202 57 7 185 94 266 181 169 179 265 385 298 641 32 243 9 461
-85 800 -6 22 -15 49 -20 60 -5 11 -16 45 -26 75 -9 30 -37 107 -60 170 -24
63 -44 124 -44 135 1 30 139 -120 215 -235z m-2798 -376 c12 -7 29 -14 37 -14
9 0 30 -6 48 -14 18 -8 62 -27 98 -43 341 -148 661 -407 845 -683 16 -25 33
-47 36 -50 15 -11 102 -166 153 -273 64 -132 149 -355 142 -373 -3 -7 -54 -45
-113 -85 -90 -59 -180 -126 -203 -149 -3 -3 -27 -23 -55 -45 -95 -76 -240
-228 -321 -335 -194 -257 -332 -593 -369 -899 -2 -24 -7 -46 -9 -49 -10 -10
-123 76 -199 153 -142 141 -231 270 -341 492 -37 72 -66 134 -66 138 0 8 -25
69 -46 108 -8 16 -14 39 -14 51 0 12 -5 27 -10 32 -10 10 -35 88 -50 159 -4
22 -11 51 -15 65 -4 14 -11 52 -16 85 -5 33 -14 76 -19 95 -14 48 -13 656 0
681 6 11 15 56 20 102 4 45 13 100 19 122 6 22 11 57 11 78 0 20 4 37 9 37 4
0 14 27 20 60 7 33 16 62 21 65 6 4 10 17 10 31 0 13 4 32 10 42 20 35 50 111
50 125 0 8 7 20 15 27 8 7 15 19 15 27 0 8 14 35 30 60 17 24 30 46 30 49 0 7
80 114 102 136 16 16 28 19 62 14 22 -4 51 -14 63 -22z m4570 -36 c28 -36 169
-426 227 -628 96 -335 119 -491 120 -810 0 -217 -2 -258 -23 -360 -86 -433
-280 -782 -645 -1160 l-101 -104 -8 49 c-4 28 -12 54 -18 59 -5 6 -9 23 -9 38
0 16 -6 41 -14 56 -7 15 -17 46 -21 69 -4 24 -11 45 -16 49 -5 3 -9 17 -9 32
0 15 -6 36 -14 47 -7 11 -16 31 -19 45 -5 27 -23 77 -44 128 -34 83 -42 102
-77 172 -44 90 -68 134 -78 138 -5 2 -8 8 -8 13 0 9 -36 66 -50 79 -3 3 -13
16 -21 30 -36 56 -178 193 -280 270 -18 14 -42 33 -53 42 -12 10 -59 48 -106
85 -47 36 -116 94 -153 126 l-68 60 6 51 c4 28 13 61 21 73 8 12 14 30 14 39
0 9 7 32 16 52 9 21 22 51 29 67 8 17 16 37 19 45 4 8 24 47 46 85 22 39 43
78 46 88 4 9 10 17 15 17 5 0 9 5 9 10 0 10 38 69 51 80 4 3 15 19 26 37 37
62 167 211 272 311 134 130 358 298 476 357 22 11 42 23 43 28 2 4 7 7 12 7 4
0 41 15 82 33 65 30 109 49 173 73 28 11 98 31 111 33 6 0 16 -5 21 -11z
m-5922 -537 c39 -5 86 -14 105 -20 19 -6 54 -13 78 -16 24 -2 48 -8 55 -12 7
-4 37 -14 67 -21 82 -19 129 -31 185 -46 l50 -14 -2 -48 c-1 -27 -7 -74 -12
-104 -6 -30 -17 -116 -26 -190 -8 -74 -21 -171 -27 -215 -17 -123 -22 -369 -9
-465 7 -47 19 -130 28 -185 8 -55 17 -127 20 -160 3 -33 9 -64 14 -70 14 -14
11 -115 -3 -120 -7 -2 -47 -13 -88 -25 -41 -12 -95 -27 -120 -34 -25 -7 -72
-21 -105 -30 -138 -39 -171 -49 -187 -57 -10 -5 -25 -9 -34 -9 -9 0 -30 -6
-47 -14 -18 -8 -54 -21 -81 -29 -58 -18 -54 -22 -111 88 -20 39 -53 99 -75
135 -46 78 -160 307 -185 370 -9 25 -21 53 -26 62 -5 9 -12 36 -15 60 -4 24
-11 52 -17 63 -37 70 -60 493 -36 645 5 36 14 92 19 125 8 57 27 121 52 175
37 77 136 159 194 161 16 0 38 5 49 10 22 10 182 5 290 -10z m7573 -97 c17 -3
32 -9 32 -14 0 -5 13 -37 29 -70 16 -33 39 -93 51 -133 12 -39 25 -83 30 -97
5 -14 13 -68 19 -120 32 -274 -3 -551 -99 -800 -12 -30 -26 -68 -32 -85 -19
-51 -128 -258 -154 -292 -13 -17 -24 -35 -24 -38 0 -6 -87 -123 -100 -135 -3
-3 -16 -19 -28 -37 -26 -37 -41 -36 -132 2 -145 61 -369 125 -440 125 -19 0
-59 3 -88 7 -54 6 -54 6 -48 37 4 17 9 76 12 131 3 55 10 111 15 125 5 14 13
72 19 130 5 58 14 137 19 175 13 89 13 319 1 410 -5 39 -14 115 -20 170 -12
107 -14 122 -23 145 -3 8 -9 51 -12 95 -14 147 -18 134 50 162 33 14 74 31 90
38 46 20 95 34 145 41 25 4 54 12 65 17 39 21 504 29 623 11z m-6903 -2003
c113 -8 223 -25 254 -40 18 -9 132 -359 191 -586 10 -39 28 -98 39 -132 12
-34 21 -68 21 -75 0 -10 47 -147 70 -203 71 -171 150 -339 204 -428 25 -43 46
-81 46 -83 0 -5 72 -116 80 -124 3 -3 10 -13 15 -22 12 -20 124 -182 196 -283
27 -38 65 -92 84 -120 20 -27 45 -62 56 -77 38 -47 22 -58 -83 -58 -51 0 -136
5 -188 11 -52 5 -162 14 -245 19 -82 5 -186 14 -230 20 -159 22 -480 87 -570
115 -22 7 -69 20 -105 30 -36 9 -81 23 -100 30 -19 7 -60 21 -90 31 -30 10
-59 22 -65 26 -5 4 -15 8 -22 8 -7 0 -32 9 -56 19 -23 11 -76 35 -117 53 -177
79 -400 215 -546 333 -89 72 -304 295 -304 315 0 5 -3 10 -7 12 -10 4 -53 65
-53 74 0 4 -6 12 -14 18 -33 25 -145 268 -179 386 -9 30 -23 79 -31 109 -9 29
-16 70 -16 90 -1 20 -5 56 -10 81 -10 52 1 70 53 91 18 7 34 16 37 19 8 9 234
120 266 129 16 5 54 19 84 31 30 12 71 26 90 32 19 5 39 14 44 19 6 5 19 9 30
9 12 0 41 6 66 14 122 38 213 59 340 77 41 5 84 14 95 19 34 17 470 23 670 11z
m6440 -76 c44 -9 108 -22 142 -30 34 -8 72 -15 85 -15 12 0 32 -7 42 -15 11
-8 31 -15 44 -15 13 0 38 -6 55 -14 18 -8 43 -16 57 -19 32 -6 189 -63 212
-77 10 -5 27 -10 37 -10 11 0 22 -3 24 -8 3 -4 38 -18 79 -31 40 -13 106 -37
147 -53 40 -15 81 -28 90 -28 9 0 26 -6 37 -14 11 -8 31 -16 44 -18 21 -3 25
-9 28 -45 2 -23 -4 -65 -12 -94 -9 -29 -14 -54 -12 -56 7 -7 -79 -253 -118
-336 -20 -43 -57 -111 -83 -150 -26 -40 -53 -83 -61 -97 -20 -37 -154 -200
-220 -266 -124 -126 -299 -269 -407 -334 -22 -13 -42 -26 -45 -29 -20 -23
-317 -173 -435 -221 -120 -48 -145 -57 -205 -76 -30 -9 -71 -23 -90 -30 -19
-7 -66 -20 -105 -29 -38 -9 -92 -22 -120 -30 -76 -21 -207 -45 -242 -45 -17 0
-62 -6 -100 -14 -105 -22 -770 -27 -803 -6 -12 8 -12 12 0 37 17 31 227 313
245 328 11 9 77 101 117 164 9 14 23 33 30 41 13 14 28 38 48 75 6 11 24 43
40 70 28 46 68 125 141 281 16 33 29 67 29 75 0 8 4 19 9 24 5 6 19 42 31 80
12 39 28 84 35 100 14 32 33 99 42 150 3 17 9 32 12 35 5 5 31 93 52 180 17
74 32 126 42 150 6 14 12 34 13 45 4 22 17 67 66 227 38 126 34 123 184 132
50 3 102 10 115 15 13 5 154 10 314 10 222 1 308 -3 370 -14z m-7991 -1520
c69 -124 253 -300 472 -453 59 -41 287 -169 347 -195 15 -6 27 -15 27 -19 0
-4 5 -8 11 -8 9 0 127 -56 387 -182 34 -17 62 -36 62 -44 0 -23 -116 -122
-175 -150 -32 -15 -43 -22 -113 -66 -24 -16 -46 -28 -50 -28 -19 -1 -183 -136
-281 -230 -62 -60 -88 -72 -164 -73 -67 -1 -150 17 -217 46 -14 6 -36 12 -50
14 -14 3 -41 11 -60 20 -19 8 -44 19 -55 23 -195 80 -305 140 -451 242 -44 32
-172 160 -226 228 -33 41 -134 229 -167 311 -11 27 -54 121 -69 150 -5 12 178
168 264 225 119 79 231 135 369 182 104 36 122 37 139 7z m9044 -69 c15 -7 67
-33 116 -57 49 -24 94 -48 100 -54 6 -6 29 -22 51 -35 76 -45 237 -186 307
-269 40 -47 40 -44 -3 -136 -23 -48 -76 -137 -99 -162 -5 -7 -10 -17 -10 -22
0 -5 -6 -16 -13 -23 -7 -7 -44 -51 -81 -97 -98 -121 -207 -227 -331 -323 -57
-43 -239 -158 -251 -158 -3 0 -20 -7 -37 -15 -88 -40 -264 -84 -341 -85 -110
-1 -278 63 -373 142 -28 24 -84 70 -124 103 -40 33 -96 80 -124 105 -47 42
-73 64 -185 155 -77 63 -85 85 -30 85 16 0 31 4 35 9 3 5 20 13 37 17 18 3 39
10 48 15 8 4 33 16 55 25 51 21 315 150 335 164 8 5 51 31 95 57 44 26 82 49
85 53 3 3 46 37 95 75 50 38 92 72 95 75 3 3 34 28 70 54 36 27 72 55 80 63
15 14 35 29 197 154 50 38 97 77 103 85 16 18 64 18 98 0z m-1998 -3746 l0
-430 -80 0 -80 0 0 430 0 430 80 0 80 0 0 -430z m280 0 l0 -430 -80 0 -80 0 0
430 0 430 80 0 80 0 0 -430z m-6954 370 c86 -38 138 -105 151 -195 l6 -45 -81
0 -80 0 -6 35 c-4 19 -17 46 -29 60 -45 53 -169 53 -214 0 -56 -64 -12 -120
132 -170 167 -59 221 -95 256 -170 21 -45 24 -123 6 -173 -18 -47 -64 -92
-127 -121 -46 -21 -70 -25 -145 -25 -188 -1 -307 83 -329 232 l-6 42 85 0 85
0 0 -31 c0 -42 33 -85 76 -99 20 -7 65 -10 101 -8 57 4 69 8 89 32 51 58 17
125 -81 161 -168 61 -206 79 -244 111 -149 128 -87 332 116 384 61 15 184 5
239 -20z m4384 -283 c0 -329 -5 -367 -54 -432 -14 -18 -52 -46 -83 -62 -49
-24 -70 -28 -139 -28 -70 0 -88 4 -139 30 -74 38 -113 95 -122 179 l-6 56 80
0 81 0 6 -45 c9 -57 42 -85 100 -85 23 0 52 7 65 16 47 33 51 62 51 379 l0
295 80 0 80 0 0 -303z m-2622 92 c46 -17 93 -60 110 -98 12 -27 18 -87 23
-246 4 -115 10 -222 14 -237 l7 -28 -80 0 c-72 0 -80 2 -85 21 -5 20 -5 20
-49 -3 -58 -30 -157 -32 -212 -2 -91 47 -128 144 -91 239 30 80 105 119 250
131 l85 7 0 29 c0 43 -40 78 -88 78 -45 0 -92 -31 -92 -61 0 -17 -8 -19 -80
-19 -88 0 -89 1 -69 61 22 65 95 122 179 140 41 9 141 2 178 -12z m541 15 l31
-6 0 -76 0 -75 -34 6 c-48 8 -108 -8 -128 -34 -16 -19 -18 -46 -18 -230 l0
-209 -80 0 -80 0 0 310 0 310 75 0 c68 0 75 -2 75 -20 0 -24 13 -26 30 -5 21
26 79 39 129 29z m512 -26 c20 -11 47 -39 60 -62 23 -40 24 -49 27 -288 l3
-248 -80 0 -81 0 0 225 c0 212 -1 226 -20 245 -31 31 -109 28 -144 -6 l-26
-27 0 -218 0 -219 -80 0 -80 0 0 310 0 310 75 0 c74 0 75 0 75 -26 l0 -26 36
23 c20 12 50 26 68 30 45 12 125 1 167 -23z m589 -1 c26 -13 58 -41 75 -66
l30 -43 7 -216 c3 -120 9 -229 13 -244 l7 -28 -80 0 c-72 0 -80 2 -85 21 -5
20 -5 20 -49 -3 -59 -31 -156 -31 -215 0 -89 47 -125 142 -88 237 30 80 105
119 250 131 l85 7 0 29 c0 43 -40 78 -88 78 -45 0 -92 -31 -92 -61 0 -17 -8
-19 -80 -19 -89 0 -92 2 -65 68 28 67 90 116 167 132 64 13 156 3 208 -23z
m1458 7 c90 -37 141 -127 150 -261 l5 -83 -192 0 c-179 0 -191 -1 -191 -19 0
-31 43 -85 83 -105 54 -26 117 -15 165 29 l37 33 43 -39 c23 -22 42 -43 42
-47 0 -15 -65 -70 -110 -93 -64 -33 -183 -33 -258 0 -114 51 -168 154 -160
310 8 159 80 258 213 292 40 11 128 2 173 -17z m1422 0 c90 -36 150 -149 150
-282 l0 -62 -190 0 c-178 0 -190 -1 -190 -19 0 -31 43 -85 83 -105 54 -26 117
-15 165 29 l37 33 43 -39 c23 -22 42 -44 42 -48 0 -15 -78 -80 -117 -97 -59
-27 -185 -24 -251 5 -65 29 -125 95 -148 163 -22 69 -16 215 13 279 64 143
215 202 363 143z m1160 0 c49 -20 112 -88 129 -141 7 -21 15 -75 18 -120 l6
-83 -192 0 c-179 0 -191 -1 -191 -19 0 -31 43 -85 83 -105 54 -26 117 -15 165
29 l37 33 43 -38 c23 -21 42 -42 42 -48 0 -16 -76 -80 -117 -98 -59 -27 -185
-24 -251 5 -64 29 -124 94 -146 158 -20 59 -21 184 -1 251 28 93 106 169 199
193 42 11 127 2 176 -17z m529 20 l31 -6 0 -75 0 -74 -37 2 c-71 4 -94 -1
-118 -26 -25 -24 -25 -24 -25 -235 l0 -210 -80 0 -80 0 0 310 0 310 75 0 c68
0 75 -2 75 -20 0 -24 13 -26 30 -5 21 26 79 39 129 29z m450 -25 c25 -11 54
-27 65 -37 25 -23 56 -90 56 -124 l0 -28 -80 0 c-76 0 -80 1 -80 22 0 39 -38
68 -88 68 -52 0 -82 -21 -82 -56 0 -32 34 -52 126 -75 96 -24 151 -54 182 -99
20 -29 23 -45 20 -95 -5 -79 -33 -119 -107 -154 -47 -21 -70 -26 -141 -25 -72
0 -93 5 -137 27 -59 30 -96 74 -112 132 -6 22 -11 43 -11 48 0 4 36 7 80 7 78
0 80 -1 80 -24 0 -39 43 -66 106 -66 56 0 94 22 94 55 0 24 -36 53 -82 66
-174 47 -228 80 -249 149 -50 167 168 294 360 209z m-8014 -96 c3 -65 5 -163
3 -218 -3 -113 9 -148 57 -157 36 -7 92 6 116 28 18 16 19 33 19 241 l0 223
80 0 80 0 0 -310 0 -310 -75 0 c-68 0 -75 2 -75 20 0 20 0 20 -39 0 -50 -27
-125 -35 -181 -20 -56 15 -114 72 -129 125 -6 24 -11 132 -11 268 l0 227 74 0
74 0 7 -117z m605 -70 c30 -100 58 -184 61 -187 3 -3 30 79 61 182 l55 187 81
3 c45 2 82 0 82 -2 0 -3 -39 -117 -86 -253 -47 -137 -95 -274 -106 -305 l-20
-58 -67 0 -67 0 -104 298 c-57 163 -105 303 -108 310 -3 10 14 12 79 10 l83
-3 56 -182z m4216 2 c23 -99 44 -173 48 -165 3 8 28 89 55 180 l48 165 59 3
60 3 32 -113 c58 -197 74 -249 79 -245 3 4 83 341 83 353 0 2 34 4 75 4 54 0
75 -4 75 -13 0 -10 -137 -529 -156 -589 -4 -15 -17 -18 -68 -18 l-64 0 -25 83
c-14 45 -40 129 -58 187 -17 58 -34 98 -37 90 -3 -8 -29 -91 -57 -185 l-51
-170 -65 -3 -64 -3 -83 304 c-45 167 -82 306 -82 311 0 4 35 6 77 4 l77 -3 42
-180z m-2442 -1199 c42 -18 76 -61 76 -97 0 -27 -3 -29 -38 -29 -33 0 -39 4
-49 30 -20 54 -115 53 -121 -3 -3 -22 2 -29 30 -41 18 -8 58 -26 90 -39 66
-29 91 -62 91 -118 0 -54 -39 -94 -102 -108 -106 -23 -211 37 -211 119 0 19 5
21 42 18 34 -2 44 -7 46 -23 5 -30 31 -45 77 -45 43 0 65 13 65 40 0 25 -28
45 -88 65 -103 33 -153 106 -118 172 33 65 131 92 210 59z m214 -198 l2 -208
-45 0 -45 0 0 203 c0 112 3 207 7 211 4 4 23 6 43 4 l35 -3 3 -207z m234 80
l83 -133 3 133 3 132 39 0 40 0 0 -211 0 -210 -42 3 -41 3 -76 122 -76 122 -3
-125 -3 -124 -44 0 -45 0 0 203 c0 112 3 207 7 210 3 4 21 7 39 7 31 0 37 -7
116 -132z m464 116 c40 -19 72 -60 80 -103 6 -31 6 -31 -38 -31 -43 0 -46 2
-52 30 -11 56 -100 64 -134 12 -26 -40 -24 -172 4 -209 39 -52 127 -39 136 21
2 17 11 22 46 24 47 4 52 -6 28 -61 -54 -128 -246 -121 -302 10 -21 48 -18
179 5 229 17 38 54 73 91 87 31 11 103 6 136 -9z m399 -24 l0 -35 -92 -3 -93
-3 0 -44 0 -45 80 0 80 0 0 -35 0 -35 -80 0 -80 0 0 -55 0 -55 95 0 95 0 0
-35 0 -35 -140 0 -140 0 0 203 c0 112 3 207 7 211 4 3 66 5 137 4 l131 -3 0
-35z m371 25 c36 -15 64 -61 64 -106 0 -36 -30 -88 -94 -157 l-60 -67 82 -3
82 -3 0 -34 0 -35 -140 0 -140 0 0 28 c0 22 20 51 85 122 86 94 100 118 93
160 -7 53 -84 52 -95 0 -5 -28 -9 -30 -50 -30 l-45 0 8 32 c10 46 30 73 67 92
40 20 97 20 143 1z m325 -11 c44 -40 54 -73 54 -184 0 -157 -36 -214 -138
-214 -98 0 -137 60 -137 209 0 121 20 177 72 201 43 19 122 13 149 -12z m320
0 c44 -40 54 -73 54 -184 0 -157 -36 -214 -138 -214 -98 0 -137 60 -137 209 0
121 20 177 72 201 43 19 122 13 149 -12z m322 -13 c26 -26 32 -39 32 -75 0
-32 -6 -51 -22 -68 l-22 -23 25 -28 c34 -39 33 -104 -1 -145 -58 -70 -200 -59
-240 18 -25 48 -20 60 25 60 33 0 42 -4 49 -24 20 -51 104 -36 109 20 4 38
-14 54 -68 61 -47 7 -54 15 -46 49 5 20 12 24 45 24 21 0 44 6 50 14 17 20 10
67 -11 80 -25 15 -72 -4 -76 -32 -3 -18 -10 -22 -43 -22 -36 0 -39 2 -39 28 0
63 62 105 148 99 44 -3 59 -9 85 -36z"/>
<path d="M7290 8432 c-159 -93 -334 -229 -480 -373 -356 -353 -558 -776 -600
-1257 -33 -375 66 -764 272 -1068 94 -139 306 -344 356 -344 25 0 34 12 129
165 194 311 271 481 343 753 10 39 29 57 31 30 5 -76 -17 -267 -45 -391 -27
-119 -84 -273 -161 -437 -259 -552 -266 -570 -246 -594 7 -8 42 -24 79 -36 37
-12 100 -37 140 -56 41 -19 75 -34 76 -34 1 0 88 -47 192 -105 110 -61 200
-105 216 -105 27 0 176 107 261 188 107 101 422 591 524 812 146 318 213 612
213 940 0 490 -160 944 -481 1360 -166 216 -429 440 -654 558 -33 18 -69 32
-80 32 -11 0 -49 -17 -85 -38z"/>
<path d="M5705 4943 c-294 -25 -526 -89 -790 -218 -139 -68 -319 -177 -407
-247 -55 -43 -50 -63 30 -140 213 -204 545 -334 1002 -390 135 -17 524 -16
660 0 440 54 793 171 1011 333 96 72 196 155 221 184 27 31 22 62 -10 79 -72
37 -459 175 -691 246 -404 124 -753 176 -1026 153z"/>
<path d="M4890 2089 c-41 -17 -60 -40 -60 -75 0 -77 105 -99 170 -34 15 15 20
33 20 70 l0 50 -52 -1 c-29 0 -64 -5 -78 -10z"/>
<path d="M6516 2090 c-43 -13 -66 -39 -66 -76 0 -77 105 -99 170 -34 15 15 20
33 20 70 l0 50 -47 -1 c-27 0 -61 -5 -77 -9z"/>
<path d="M7993 2305 c-31 -13 -82 -90 -68 -103 3 -4 54 -8 112 -10 l106 -4 -6
38 c-12 70 -80 108 -144 79z"/>
<path d="M9411 2303 c-34 -18 -80 -87 -67 -101 4 -3 54 -8 112 -10 l104 -4 0
31 c0 38 -43 87 -85 95 -19 4 -42 0 -64 -11z"/>
<path d="M10571 2303 c-34 -18 -80 -87 -67 -101 4 -3 55 -8 113 -10 l106 -4
-6 38 c-12 73 -82 110 -146 77z"/>
<path d="M7959 983 c-10 -11 -14 -47 -14 -125 0 -103 1 -111 24 -129 29 -24
36 -24 61 1 17 17 20 33 20 123 0 77 -4 108 -16 125 -18 26 -56 29 -75 5z"/>
<path d="M8279 983 c-10 -11 -14 -47 -14 -125 0 -103 1 -111 24 -129 29 -24
36 -24 61 1 17 17 20 33 20 123 0 77 -4 108 -16 125 -18 26 -56 29 -75 5z"/>
</g>
</svg>
